<?xml version="1.0" standalone="no"?>
<!DOCTYPE svg PUBLIC "-//W3C//DTD SVG 20010904//EN"
 "http://www.w3.org/TR/2001/REC-SVG-20010904/DTD/svg10.dtd">
<svg version="1.0" xmlns="http://www.w3.org/2000/svg"
 width="71.000000pt" height="74.000000pt" viewBox="0 0 71.000000 74.000000"
 preserveAspectRatio="xMidYMid meet">

<g transform="translate(0.000000,74.000000) scale(0.100000,-0.100000)"
fill="#000000" stroke="none">
<path d="M71 717 c-6 -6 -11 -7 -11 -2 0 5 -11 -2 -24 -14 -14 -13 -22 -29
-19 -37 3 -8 0 -14 -6 -14 -9 0 -11 -72 -9 -275 l3 -275 28 -27 c27 -28 28
-28 165 -28 115 0 137 2 137 15 0 12 -22 15 -129 18 -78 2 -135 7 -143 14 -30
25 -33 45 -12 72 20 25 25 26 119 26 59 0 101 4 105 11 11 16 1 20 -52 22
l-48 2 -3 232 -2 232 203 3 204 3 2 -140 c2 -136 8 -164 30 -151 14 9 15 262
1 271 -6 4 -8 10 -5 15 3 5 -8 16 -25 25 -25 13 -70 15 -264 15 -160 -1 -237
-5 -245 -13z m59 -260 l0 -233 -45 -2 -45 -2 0 217 c0 239 3 253 62 253 l28 0
0 -233z"/>
<path d="M255 560 c-14 -23 12 -30 120 -30 88 0 114 3 118 14 3 8 3 17 0 20
-11 10 -231 7 -238 -4z"/>
<path d="M252 463 c3 -15 14 -18 68 -18 54 0 65 3 68 18 3 15 -5 17 -68 17
-63 0 -71 -2 -68 -17z"/>
<path d="M464 375 c-21 -21 -24 -34 -24 -91 0 -59 -2 -65 -17 -59 -41 17 -55
17 -73 0 -39 -35 -17 -82 85 -180 34 -34 38 -35 111 -35 41 0 84 5 94 10 12 6
27 37 40 81 18 59 19 73 8 87 -10 12 -10 14 0 8 17 -10 15 3 -5 22 -16 17 -30
21 -88 26 -29 3 -30 5 -35 57 -3 30 -10 62 -16 72 -16 28 -53 29 -80 2z m56
-79 c0 -71 0 -71 80 -82 27 -4 54 -12 60 -18 10 -13 -14 -119 -33 -143 -6 -8
-35 -13 -77 -13 l-68 0 -60 65 c-41 45 -59 73 -58 89 1 21 4 23 21 14 11 -6
30 -19 43 -29 42 -33 52 -17 52 87 0 87 1 94 20 94 18 0 20 -7 20 -64z"/>
</g>
</svg>
